<?xml version="1.0" standalone="no"?>
<!DOCTYPE svg PUBLIC "-//W3C//DTD SVG 20010904//EN"
 "http://www.w3.org/TR/2001/REC-SVG-20010904/DTD/svg10.dtd">
<svg version="1.0" xmlns="http://www.w3.org/2000/svg"
 width="461.000000pt" height="626.000000pt" viewBox="0 0 461.000000 626.000000"
 preserveAspectRatio="xMidYMid meet">
<metadata>
Created by potrace 1.16, written by Peter Selinger 2001-2019
</metadata>
<g transform="translate(0.000000,626.000000) scale(0.100000,-0.100000)"
fill="#000000" stroke="none">
<path d="M2096 6244 c-124 -24 -201 -75 -246 -164 -7 -14 -14 -26 -15 -28 -2
-2 -27 10 -57 27 -122 69 -319 81 -453 26 -172 -70 -290 -170 -351 -299 -32
-66 -37 -89 -43 -178 -6 -98 -2 -153 13 -208 7 -25 6 -25 -37 -22 -187 15
-333 -251 -272 -493 25 -99 81 -200 152 -275 81 -86 126 -115 283 -180 69 -29
129 -56 134 -60 4 -5 14 -71 22 -147 7 -76 20 -181 29 -234 20 -125 20 -120
-15 -113 -16 4 -44 1 -60 -6 -95 -40 -107 -209 -25 -371 47 -92 151 -158 205
-129 12 6 23 10 25 8 3 -2 -5 -32 -15 -67 -31 -98 -35 -159 -16 -245 l17 -75
-34 -34 c-21 -21 -39 -53 -47 -83 -7 -28 -27 -64 -45 -84 -44 -47 -55 -71 -55
-119 0 -37 -2 -41 -25 -41 -57 0 -184 -34 -247 -65 -111 -56 -288 -185 -378
-275 -236 -237 -363 -565 -402 -1037 -11 -141 -13 -147 -44 -184 -35 -42 -78
-142 -89 -206 -8 -48 14 -138 47 -191 17 -28 21 -52 22 -142 1 -104 2 -110 31
-152 42 -59 114 -97 183 -98 44 0 60 -5 90 -30 40 -31 132 -60 196 -60 26 0
50 -8 72 -25 33 -26 218 -112 284 -134 81 -26 259 -51 361 -51 227 0 427 53
740 198 212 97 403 172 440 172 13 0 71 -27 129 -61 248 -144 403 -203 649
-245 129 -22 167 -25 326 -21 146 4 194 8 253 26 107 31 189 76 246 135 69 69
128 94 238 99 74 3 93 7 127 30 80 53 116 145 100 249 -8 49 -6 59 25 123 45
92 50 126 31 209 -18 77 -44 134 -86 187 -26 33 -29 44 -33 145 -14 284 -93
592 -203 793 -74 136 -204 294 -302 365 -74 55 -307 172 -421 212 -58 20 -111
41 -117 47 -7 5 -13 23 -13 39 0 37 -13 63 -55 108 -17 19 -37 54 -44 78 -7
24 -28 58 -48 78 l-36 36 18 75 c19 81 16 184 -9 266 l-13 43 28 -4 c74 -11
175 74 218 184 33 82 40 207 15 259 -21 44 -66 75 -111 75 -32 0 -33 1 -33 43
0 23 9 91 20 151 11 60 20 126 20 145 0 51 9 59 75 76 129 34 340 171 410 266
56 76 84 149 103 274 19 127 8 218 -38 311 -49 101 -122 151 -330 227 -80 30
-138 84 -196 182 -106 179 -140 229 -204 295 -82 85 -169 141 -271 175 -92 31
-167 34 -227 10 l-42 -17 -38 34 c-91 83 -235 161 -326 177 -75 14 -123 13
-210 -5z m259 -71 c65 -23 158 -79 272 -165 104 -78 215 -139 278 -152 l30 -7
-35 22 c-39 23 -120 99 -120 111 0 25 141 -3 239 -48 60 -28 91 -51 166 -127
55 -55 111 -124 140 -172 134 -221 246 -363 324 -408 45 -26 38 -10 -21 50
-28 29 -49 55 -46 58 8 9 176 -63 224 -95 110 -76 153 -195 134 -367 -25 -228
-101 -334 -315 -438 -85 -41 -202 -82 -211 -73 -2 2 -1 34 3 71 5 60 8 67 28
67 54 0 225 77 225 102 0 4 -32 -4 -72 -18 -152 -52 -223 -29 -363 119 -49 52
-104 102 -122 111 -18 9 -74 20 -125 26 -155 16 -263 64 -346 154 -48 52 -70
115 -92 266 l-17 115 -8 -58 c-4 -32 -5 -94 -3 -138 4 -64 11 -91 36 -140 37
-71 38 -76 15 -101 -26 -29 -211 -26 -337 7 -184 46 -268 102 -361 239 -32 47
-60 84 -62 82 -8 -8 38 -134 60 -163 27 -36 87 -87 130 -109 15 -8 27 -18 27
-22 0 -16 -125 -86 -178 -99 -36 -9 -109 -15 -197 -15 -206 0 -296 31 -419
143 -31 28 -56 47 -56 42 0 -20 60 -102 91 -124 19 -13 62 -51 97 -85 52 -52
62 -68 62 -96 -1 -42 -6 -48 -121 -141 -53 -42 -99 -85 -102 -96 -4 -17 -10
-18 -63 -10 -105 16 -190 47 -242 88 -146 116 -241 309 -229 465 13 173 107
288 254 312 l41 6 31 -66 c18 -36 36 -66 42 -66 12 0 12 3 -6 47 -24 63 -55
208 -55 257 0 60 27 179 53 235 26 56 113 150 181 195 74 49 196 95 285 108
101 15 161 1 302 -68 132 -65 152 -68 115 -20 -14 19 -26 39 -26 44 0 19 84
104 123 124 87 44 247 54 342 21z m260 -1328 c204 -30 380 -87 511 -167 30
-18 96 -66 146 -107 l90 -74 -6 -61 c-3 -34 -10 -116 -16 -182 -9 -127 -18
-177 -29 -172 -3 2 -41 28 -84 58 -117 83 -380 226 -466 254 -104 34 -277 66
-391 73 -323 18 -742 -131 -1011 -360 l-67 -56 -11 97 c-5 53 -15 155 -22 227
l-11 129 23 16 c13 8 48 36 79 61 66 54 160 118 215 146 105 53 360 116 537
132 127 11 390 4 513 -14z m-75 -455 c64 -11 127 -23 140 -29 l25 -10 -25 -1
c-35 -1 -110 -36 -143 -68 -66 -62 -72 -129 -16 -176 36 -31 27 -29 204 -30
128 -1 144 -3 190 -25 27 -14 78 -54 113 -90 l64 -65 -3 85 c-4 72 -9 95 -41
162 l-38 78 71 -38 c39 -21 76 -47 82 -58 18 -33 12 -144 -12 -205 -27 -70
-26 -97 3 -200 40 -142 41 -175 11 -350 l-7 -35 20 24 19 23 6 -62 c19 -177
-4 -281 -84 -387 -79 -105 -276 -231 -448 -287 -166 -53 -233 -67 -274 -54
-28 8 -41 7 -67 -5 -29 -15 -34 -15 -56 -1 -18 12 -36 15 -69 9 -85 -12 -318
55 -450 130 -292 167 -382 323 -348 603 6 52 6 52 26 35 20 -18 20 -17 14 7
-4 14 -12 66 -19 117 -12 90 -11 94 20 206 38 137 39 152 7 242 -42 121 -31
167 53 220 31 19 60 35 64 35 4 0 -3 -28 -16 -62 -31 -83 -49 -173 -41 -205 6
-25 7 -24 63 34 32 33 82 73 112 89 54 28 59 29 207 29 138 0 154 2 180 21 87
65 56 166 -71 229 -27 14 -61 25 -75 25 -41 0 -20 8 79 30 192 43 313 45 530
10z m-1264 -550 c19 -39 87 -271 81 -276 -8 -9 -47 15 -47 29 -2 60 -21 152
-36 168 -20 22 -76 26 -93 6 -34 -42 -24 -132 21 -182 41 -47 53 -44 27 8 -40
77 -43 138 -6 124 10 -4 18 -25 22 -54 12 -93 44 -135 100 -135 30 0 43 -36
28 -77 -8 -22 -15 -26 -47 -25 -49 2 -106 56 -149 144 -29 58 -32 74 -32 153
0 88 0 89 33 118 41 37 81 36 98 -1z m2156 1 c28 -25 32 -35 36 -93 8 -118
-47 -240 -135 -301 -67 -48 -114 -21 -98 54 5 21 11 29 22 25 23 -9 73 22 88
57 8 18 17 54 20 80 6 48 26 70 46 50 12 -12 3 -51 -26 -118 -16 -37 -16 -38
1 -25 44 37 72 168 42 198 -19 19 -73 14 -92 -7 -11 -12 -21 -48 -27 -98 -7
-52 -15 -82 -26 -90 -26 -20 -34 -15 -27 15 9 36 82 261 90 273 11 18 54 8 86
-20z m-2039 -961 c4 -17 3 -19 -9 -9 -8 6 -14 18 -14 26 0 20 16 8 23 -17z
m27 -40 c0 -5 -2 -10 -4 -10 -3 0 -8 5 -11 10 -3 6 -1 10 4 10 6 0 11 -4 11
-10z m-10 -49 c0 -14 2 -14 11 -1 8 12 9 10 4 -7 -3 -12 -1 -24 5 -28 15 -9
12 -25 -4 -19 -13 5 -46 78 -46 99 1 16 30 -27 30 -44z m105 -41 c11 -17 -5
-32 -21 -19 -8 6 -14 15 -14 20 0 12 27 11 35 -1z m70 -45 c32 -26 23 -33 -20
-13 -14 6 -25 17 -25 25 0 19 11 16 45 -12z m-260 -5 c18 -19 17 -20 -6 -19
-13 0 -18 3 -11 6 10 4 10 8 1 19 -18 22 -4 17 16 -6z m159 -42 c-3 -5 1 -8 8
-8 8 0 30 -17 49 -37 30 -33 30 -35 3 -10 -17 15 -33 24 -37 20 -4 -3 -7 -1
-7 5 0 7 -6 12 -13 12 -8 0 -20 11 -27 25 -7 14 -18 25 -24 26 -6 0 -2 4 9 8
15 6 23 3 32 -13 6 -11 9 -24 7 -28z m-90 0 c52 -25 52 -44 0 -22 -19 8 -39
12 -45 8 -5 -3 -17 0 -25 7 -16 13 -12 17 23 28 1 1 23 -9 47 -21z m96 -59 c0
-23 -26 -15 -33 10 -3 14 0 17 14 14 11 -3 19 -14 19 -24z m2124 -45 c73 -29
257 -137 333 -196 138 -106 286 -337 363 -568 54 -160 105 -456 94 -541 l-6
-46 -68 29 c-94 39 -247 70 -355 70 -112 1 -195 -21 -276 -74 -62 -40 -75 -45
-64 -27 4 5 -3 103 -16 216 -21 186 -22 216 -10 312 23 194 23 194 -4 116 -13
-38 -27 -94 -30 -122 -4 -29 -10 -53 -14 -53 -3 0 -15 29 -25 65 -10 36 -31
91 -46 123 -28 57 -100 165 -100 149 0 -5 22 -61 49 -125 59 -139 63 -156 92
-337 19 -120 21 -163 16 -301 -8 -186 -22 -268 -46 -260 -9 3 -62 22 -119 41
-79 28 -121 37 -182 38 -43 2 -81 5 -85 8 -8 9 21 330 54 594 16 127 32 253
35 281 l5 52 -82 37 c-131 59 -203 111 -239 175 -18 30 -41 67 -52 82 -11 15
-18 29 -15 31 2 2 74 21 160 41 226 53 345 118 409 221 l21 34 69 -20 c39 -10
99 -31 134 -45z m-2351 -18 c92 -93 171 -129 367 -171 68 -14 127 -28 132 -31
4 -3 -1 -19 -12 -35 -48 -66 -90 -177 -110 -292 -44 -243 -83 -310 -240 -405
-22 -14 -29 -22 -18 -22 10 0 59 -14 110 -31 79 -26 109 -31 198 -32 125 -1
176 15 267 86 74 59 127 128 164 216 23 55 31 94 39 192 6 68 12 134 15 146
l5 22 37 -21 c35 -21 37 -21 66 -4 21 12 33 14 41 6 5 -5 24 -10 42 -10 37 0
44 -14 70 -130 37 -169 141 -294 321 -384 76 -39 216 -69 279 -61 29 3 54 3
57 -2 2 -4 -2 -75 -9 -158 -7 -82 -16 -197 -19 -255 l-7 -106 -96 -17 c-53
-10 -137 -26 -186 -37 -49 -10 -139 -24 -200 -30 -126 -13 -264 0 -506 47
-241 47 -329 34 -490 -73 l-36 -24 -134 20 c-102 15 -160 18 -237 14 l-101 -7
5 39 c3 25 -1 54 -11 78 -25 61 -21 228 13 462 29 202 34 217 116 412 15 35
24 66 22 69 -6 6 -68 -88 -100 -152 -14 -27 -33 -78 -43 -113 -9 -34 -19 -61
-21 -59 -1 2 -14 46 -27 98 -47 183 -72 216 -42 55 34 -177 31 -338 -11 -553
l-15 -81 -47 29 c-71 46 -160 69 -265 70 -105 1 -253 -27 -352 -67 -47 -19
-69 -23 -77 -15 -16 16 -13 131 6 255 65 419 267 777 536 951 153 99 324 173
403 174 33 1 45 -7 101 -63z m277 44 c12 -8 9 -10 -12 -10 -16 0 -28 5 -28 10
0 13 20 13 40 0z m47 -16 c-3 -3 -12 -4 -19 -1 -8 3 -5 6 6 6 11 1 17 -2 13
-5z m805 -95 c13 -8 1 -79 -12 -79 -6 0 -10 7 -10 15 0 8 -4 15 -10 15 -5 0
-10 -4 -10 -10 0 -16 -27 -12 -34 5 -3 8 -10 15 -16 15 -6 0 -8 -4 -5 -10 3
-5 -7 -22 -23 -38 -25 -24 -30 -26 -42 -13 -8 8 -15 41 -17 75 -2 45 0 54 6
36 l9 -25 1 25 c1 25 2 24 22 -7 18 -28 27 -33 60 -33 34 0 39 3 45 28 10 40
18 50 22 27 3 -11 9 -23 14 -26z m-515 -211 c-19 -24 -37 -56 -41 -71 -4 -17
-11 -25 -18 -21 -6 4 -8 3 -4 -4 3 -6 -3 -34 -14 -63 -12 -28 -29 -95 -40
-148 -28 -143 -50 -198 -73 -184 -6 3 -7 1 -3 -6 8 -12 -10 -41 -25 -41 -5 0
2 22 16 49 15 31 31 90 41 156 11 67 20 102 25 93 6 -8 9 0 9 25 0 35 45 137
61 137 4 0 10 11 13 25 5 20 70 94 84 95 2 0 -12 -19 -31 -42z m672 -239 c10
-30 30 -76 45 -102 16 -26 26 -51 22 -54 -3 -3 -8 2 -12 11 -3 9 -10 14 -14
11 -4 -3 -12 1 -18 8 -16 20 -62 142 -62 166 0 39 22 17 39 -40z m545 -37 l39
-24 -7 -76 c-3 -43 -11 -119 -17 -170 l-12 -93 -27 26 c-54 51 -77 111 -95
245 -9 69 -19 135 -22 148 l-5 22 53 -26 c30 -15 71 -38 93 -52z m-1218 -242
c-13 -17 -27 -26 -30 -21 -3 5 1 11 9 15 8 3 15 10 15 16 0 15 24 40 28 29 2
-5 -8 -23 -22 -39z m-36 -42 c0 -16 -60 -58 -82 -58 -9 0 -18 -5 -20 -12 -3
-7 -12 -9 -23 -4 -17 6 -16 9 11 25 20 13 33 15 42 8 9 -7 11 -6 6 8 -6 14 -3
16 17 11 13 -3 18 -3 11 0 -10 5 -10 9 -1 20 14 17 39 18 39 2z m-207 -85 c-7
-2 -19 -2 -25 0 -7 3 -2 5 12 5 14 0 19 -2 13 -5z m-818 -393 c83 -26 136 -74
156 -138 6 -23 10 -44 8 -47 -3 -2 -30 5 -59 16 -82 31 -236 31 -307 0 -59
-26 -96 -60 -53 -48 52 15 197 29 252 25 44 -3 68 -11 100 -35 23 -17 44 -35
46 -41 2 -6 -21 -13 -55 -17 -109 -12 -238 -46 -313 -82 -103 -49 -229 -176
-282 -284 -45 -91 -48 -136 -13 -196 27 -48 20 -52 -41 -22 -79 38 -134 120
-134 200 0 14 12 63 26 110 20 65 24 98 21 147 -3 35 -10 69 -16 75 -8 8 -11
5 -11 -11 0 -37 -32 -152 -42 -152 -17 0 -38 69 -38 125 0 59 25 138 61 189
27 39 111 107 167 135 37 19 178 60 252 75 58 11 207 -2 275 -24z m3304 11
c222 -43 366 -140 416 -281 23 -63 24 -157 2 -198 -28 -51 -32 -44 -63 117 -8
38 -24 11 -31 -50 -4 -41 1 -78 21 -151 31 -113 32 -149 7 -203 -32 -72 -140
-142 -202 -133 -22 3 -21 5 18 30 70 46 73 99 12 213 -57 106 -178 228 -269
273 -78 39 -231 79 -335 88 -44 4 -74 11 -72 17 2 6 28 24 58 41 53 30 57 31
179 30 83 -1 142 -7 175 -17 l50 -16 -32 29 c-43 39 -122 54 -243 47 -52 -3
-112 -13 -134 -22 -21 -9 -40 -14 -43 -12 -9 9 17 85 38 111 12 15 44 39 72
53 109 55 214 65 376 34z m-781 -262 c106 -28 229 -88 363 -180 32 -22 59 -37
59 -33 0 4 -28 33 -62 66 l-63 59 55 -7 c93 -11 241 -53 317 -89 119 -59 223
-201 223 -307 0 -83 -76 -170 -160 -184 -89 -14 -132 -27 -119 -35 8 -5 33 -9
57 -9 23 0 42 -4 42 -9 0 -16 -118 -71 -197 -92 -113 -31 -364 -38 -516 -15
-264 40 -444 99 -667 220 -52 28 -137 70 -189 93 -52 24 -117 60 -145 81 -70
52 -252 168 -361 229 -77 44 -175 80 -375 140 -20 6 -3 16 92 53 100 39 166
39 340 1 147 -33 347 -61 432 -61 78 0 270 26 411 56 151 31 309 52 355 47 19
-3 68 -13 108 -24z m-1953 -105 c271 -44 594 -180 868 -367 98 -67 106 -75 80
-84 -10 -3 -101 -42 -203 -86 -366 -157 -442 -184 -605 -217 -86 -18 -357 -14
-463 5 -88 17 -312 94 -312 108 0 4 15 8 33 8 17 1 84 4 147 8 110 6 113 7 75
19 -22 6 -74 12 -116 12 -64 0 -236 21 -377 45 -67 12 -142 107 -142 181 0 84
82 200 190 269 52 33 300 112 300 95 0 -5 -18 -19 -40 -31 -22 -13 -40 -26
-40 -31 0 -12 5 -11 78 23 143 66 303 79 527 43z"/>
<path d="M2525 4724 c137 -18 254 -48 355 -91 84 -36 232 -114 227 -120 -2 -1
-20 2 -40 8 -50 14 -210 28 -220 19 -4 -4 12 -12 35 -19 46 -14 114 -54 175
-103 33 -27 35 -30 13 -24 -48 12 -160 28 -172 24 -7 -3 13 -16 44 -30 73 -34
158 -92 235 -162 33 -31 66 -56 72 -56 6 0 11 15 11 33 0 17 10 92 22 166 l22
134 -23 16 c-74 51 -215 124 -290 151 -137 50 -260 70 -424 69 l-142 -1 100
-14z"/>
<path d="M1719 4015 c-25 -13 -38 -37 -54 -94 -6 -19 2 -14 37 23 38 39 50 46
84 46 22 0 50 -7 62 -16 37 -26 40 -5 4 27 -37 33 -88 38 -133 14z"/>
<path d="M2763 4010 c-18 -11 -33 -27 -33 -35 0 -19 11 -19 36 0 23 17 77 19
107 4 12 -6 32 -23 44 -38 29 -35 36 -24 14 24 -29 65 -104 85 -168 45z"/>
<path d="M1743 3935 c-20 -8 -44 -33 -62 -62 -52 -84 -60 -92 -104 -101 -23
-6 -34 -10 -23 -11 15 -1 17 -6 11 -28 l-7 -28 24 23 c26 23 53 29 63 12 4 -6
30 -24 58 -40 83 -48 179 -38 236 24 l25 26 -18 55 c-20 65 -58 113 -103 131
-40 17 -59 17 -100 -1z m80 -42 c3 -5 -6 -9 -20 -9 -60 -4 -92 -83 -53 -136
12 -16 20 -32 17 -34 -8 -8 -94 34 -100 49 -8 21 46 102 80 121 30 16 69 21
76 9z m-13 -52 c0 -5 -7 -12 -16 -15 -12 -5 -15 -16 -12 -42 4 -32 3 -34 -9
-18 -16 22 -16 39 -3 65 11 19 40 27 40 10z m40 -41 c0 -26 -15 -33 -30 -15
-10 12 -10 18 0 30 15 18 30 11 30 -15z m55 0 c22 -43 19 -56 -19 -74 -47 -22
-50 -20 -25 13 12 16 22 43 23 60 1 17 2 31 3 31 1 0 9 -13 18 -30z"/>
<path d="M2754 3931 c-43 -26 -70 -63 -90 -123 -16 -48 -16 -51 3 -77 55 -74
169 -81 265 -17 l57 38 30 -21 c36 -26 45 -27 31 -2 -8 16 -6 22 7 30 15 9 13
10 -13 11 -41 0 -69 23 -102 85 -47 87 -121 117 -188 76z m133 -63 c31 -29 66
-95 57 -109 -9 -14 -75 -42 -82 -34 -3 3 0 11 6 17 7 7 12 29 12 50 0 72 -69
111 -121 69 -30 -24 -33 -89 -5 -120 11 -12 16 -24 12 -28 -9 -9 -76 27 -76
41 0 25 50 115 71 130 32 23 93 15 126 -16z m-48 -44 c16 -21 18 -30 9 -49
-15 -33 -45 -41 -69 -19 -25 23 -24 59 3 78 30 21 33 20 57 -10z"/>
<path d="M2782 3818 c-15 -15 -15 -30 1 -52 18 -24 51 -12 35 14 -9 14 -9 22
1 34 12 14 11 16 -6 16 -10 0 -24 -5 -31 -12z"/>
<path d="M2195 3836 c-31 -14 -80 -58 -96 -87 -6 -11 9 -6 41 16 46 31 122 55
174 55 41 0 122 -29 164 -60 48 -35 52 -31 16 17 -41 54 -90 73 -186 73 -46
-1 -96 -7 -113 -14z"/>
<path d="M2000 3652 c-62 -31 -75 -98 -29 -157 16 -20 29 -25 64 -25 23 0 59
7 80 16 33 13 40 14 52 1 12 -12 7 -15 -44 -19 -34 -4 -100 -23 -160 -47 -118
-48 -184 -54 -227 -20 -30 23 -34 68 -11 109 22 38 18 41 -19 19 -103 -60 -97
-226 10 -300 94 -64 225 -85 331 -51 62 20 62 20 80 0 10 -11 29 -40 43 -66
34 -62 68 -85 127 -86 74 -1 107 17 142 82 53 97 48 94 120 72 76 -24 137 -25
216 -4 165 42 242 158 186 280 -16 36 -68 90 -78 81 -2 -2 3 -21 11 -43 36
-102 -70 -147 -209 -88 -33 14 -76 32 -95 39 l-35 14 32 7 c49 10 78 47 78
100 0 59 -34 94 -100 102 -35 3 -46 2 -41 -7 4 -6 15 -11 24 -11 9 0 32 -9 50
-20 76 -47 11 -162 -68 -120 -12 7 -17 16 -13 27 10 27 -64 11 -125 -28 -68
-42 -103 -42 -172 0 -56 35 -130 53 -130 32 0 -6 6 -11 13 -11 21 -1 -37 -29
-60 -30 -32 0 -63 34 -63 70 0 34 30 66 71 75 16 4 31 11 34 16 10 16 -48 10
-85 -9z m506 -167 c18 -13 16 -14 -23 -15 -40 0 -52 8 -36 23 11 12 38 8 59
-8z m-124 -356 c20 -11 20 -11 -3 -35 -41 -44 -123 -40 -153 9 -8 13 -8 20 4
27 20 13 127 13 152 -1z"/>
<path d="M2124 3033 c41 -81 104 -123 186 -123 70 0 126 34 166 102 19 33 33
63 30 65 -2 3 -29 -20 -58 -50 -59 -61 -110 -83 -166 -72 -55 10 -87 30 -127
80 -48 58 -62 57 -31 -2z"/>
<path d="M1924 2872 c11 -59 37 -102 99 -157 75 -68 142 -95 258 -102 101 -7
194 16 270 66 75 50 140 145 139 203 -1 20 -4 18 -20 -13 -99 -187 -345 -267
-544 -176 -68 31 -116 74 -167 150 -38 56 -41 59 -35 29z"/>
<path d="M2790 1442 c-77 -77 10 -199 107 -148 83 42 59 160 -34 173 -37 5
-46 2 -73 -25z m90 -12 c49 -49 -9 -140 -66 -102 -13 8 -34 46 -34 60 0 19 42
62 61 62 10 0 28 -9 39 -20z"/>
<path d="M2230 2432 c0 -10 7 -19 15 -19 17 0 17 0 9 21 -8 22 -24 20 -24 -2z"/>
</g>
</svg>
